<?xml version="1.0" encoding="utf-8"?>
<svg width="356px" height="83px" viewBox="0 0 356 83" version="1.1" xmlns:xlink="http://www.w3.org/1999/xlink" xmlns="http://www.w3.org/2000/svg">
  <g id="The-WAD-Index">
    <g id="The" fill="#E23042">
      <path d="M27.293 9.82617L27.293 17.748L26.2148 17.748L26.2148 9.89648Q26.2148 7.36523 25.3594 6.31055Q24.5039 5.25586 22.7695 5.25586Q20.7773 5.25586 19.6172 6.42773Q18.457 7.59961 18.457 10.3301L18.457 17.748L17.3789 17.748L17.3789 -0.486328L18.457 -0.486328L18.457 7.04883Q18.832 6.04102 19.793 5.25586Q20.9414 4.30664 23.0273 4.30664Q24.9727 4.30664 26.1328 5.70117Q27.293 7.10742 27.293 9.82617ZM0.527344 0.251953L14.1328 0.251953L14.1328 1.21289L7.92188 1.21289L7.92188 17.748L6.73828 17.748L6.73828 1.21289L0.527344 1.21289L0.527344 0.251953ZM42.8203 11.3262L42.8203 10.6465Q42.8203 7.78711 41.5195 6.00586Q40.207 4.30664 37.6289 4.30664Q34.8516 4.30664 33.293 6.09961Q31.7695 7.82227 31.7695 11.3262Q31.7695 14.7012 33.4336 16.4473Q34.9688 18.0879 38.0039 18.0879Q38.7188 18.0879 39.9375 17.8301Q41.1563 17.5723 42.3164 17.0801L42.3164 15.9434Q41.168 16.5527 39.9961 16.8574Q38.8359 17.1621 38.1328 17.1621Q35.4492 17.1621 34.0898 15.7559Q32.8594 14.4902 32.8594 11.3262L42.8203 11.3262ZM40.4883 6.38086Q41.7305 7.64648 41.7305 10.4121L32.9063 10.4121Q33.1523 7.51758 34.3711 6.42773Q35.6953 5.25586 37.6523 5.25586Q39.4453 5.25586 40.4883 6.38086Z" />
    </g>
    <g id="WAD-Index" fill="#E23042">
      <path d="M265.188 29.7031L265.188 48.6406Q263.375 45.5156 260.609 44Q257.844 42.4844 253.969 42.4844Q247.625 42.4844 243.641 47.5469Q239.656 52.6094 239.656 60.8594Q239.656 69.1094 243.641 74.1719Q247.625 79.2344 253.969 79.2344Q257.844 79.2344 260.609 77.7188Q263.375 76.2031 265.188 73.0781L265.188 78.3281L270.938 78.3281L270.938 29.7031L265.188 29.7031ZM8.5 31.6719L2.125 31.6719L13.8125 78.3281L21.75 78.3281L31.6875 37.8281L41.5313 78.3281L49.4688 78.3281L61.1875 31.6719L54.7813 31.6719L45 71.1094L35.1875 31.6719L28.0938 31.6719L18.3125 71.1094L8.5 31.6719ZM88.75 31.6719L81.5938 31.6719L63.7813 78.3281L70.4375 78.3281L74.6875 66.3594L95.7188 66.3594L99.9688 78.3281L106.531 78.3281L88.75 31.6719ZM113.344 31.6719L126.313 31.6719Q139.875 31.6719 146.219 37.3125Q152.563 42.9531 152.563 54.9531Q152.563 67.0156 146.188 72.6719Q139.813 78.3281 126.313 78.3281L113.344 78.3281L113.344 31.6719ZM189.281 31.6719L182.969 31.6719L182.969 78.3281L189.281 78.3281L189.281 31.6719ZM119.656 36.8594L119.656 73.1406L127.281 73.1406Q136.938 73.1406 141.422 68.7656Q145.906 64.3906 145.906 54.9531Q145.906 45.5781 141.422 41.2188Q136.938 36.8594 127.281 36.8594L119.656 36.8594ZM76.5938 61.1094L85.1563 37.8906L93.75 61.1094L76.5938 61.1094ZM230.688 57.2031L230.688 78.3281L224.938 78.3281L224.938 57.3906Q224.938 52.4219 223 49.9531Q221.063 47.4844 217.188 47.4844Q212.531 47.4844 209.844 50.4531Q207.156 53.4219 207.156 58.5469L207.156 78.3281L201.375 78.3281L201.375 43.3281L207.156 43.3281L207.156 48.7656Q209.219 45.6094 212.016 44.0469Q214.813 42.4844 218.469 42.4844Q224.5 42.4844 227.594 46.2188Q230.688 49.9531 230.688 57.2031ZM312.719 59.3906L312.719 62.2031L286.281 62.2031Q286.656 68.1406 289.859 71.25Q293.063 74.3594 298.781 74.3594Q302.094 74.3594 305.203 73.5469Q308.313 72.7344 311.375 71.1094L311.375 76.5469Q308.281 77.8594 305.031 78.5469Q301.781 79.2344 298.438 79.2344Q290.063 79.2344 285.172 74.3594Q280.281 69.4844 280.281 61.1719Q280.281 52.5781 284.922 47.5313Q289.563 42.4844 297.438 42.4844Q304.5 42.4844 308.609 47.0313Q312.719 51.5781 312.719 59.3906ZM338.594 60.3594L351.25 43.3281L344.469 43.3281L335.188 55.7969L325.906 43.3281L319.125 43.3281L331.563 60.0156L317.969 78.3281L324.75 78.3281L334.938 64.5781L345.125 78.3281L351.906 78.3281L338.594 60.3594ZM248.203 70.8125Q245.594 67.2031 245.594 60.8594Q245.594 54.5156 248.203 50.9063Q250.813 47.2969 255.375 47.2969Q259.938 47.2969 262.563 50.9063Q265.188 54.5156 265.188 60.8594Q265.188 67.2031 262.563 70.8125Q259.938 74.4219 255.375 74.4219Q250.813 74.4219 248.203 70.8125ZM306.969 57.7031Q306.906 52.9844 304.328 50.1719Q301.75 47.3594 297.5 47.3594Q292.688 47.3594 289.797 50.0781Q286.906 52.7969 286.469 57.7344L306.969 57.7031Z" />
    </g>
  </g>
</svg>